<svg version="1.1" id="Layer_1" xmlns="http://www.w3.org/2000/svg" xmlns:xlink="http://www.w3.org/1999/xlink" x="0px" y="0px"
	 width="100%" viewBox="0 0 512 512" enable-background="new 0 0 512 512" xml:space="preserve">
<path fill="#680C2C" opacity="1.000000" stroke="none" 
	d="
M245.000000,513.000000 
	C164.686142,513.000000 84.872253,512.975464 5.058550,513.087036 
	C1.763908,513.091675 0.895871,512.604370 0.898331,509.060333 
	C1.014933,341.101379 1.017282,173.142334 0.889707,5.183421 
	C0.886831,1.397184 1.887493,0.915937 5.314635,0.917853 
	C173.106979,1.011693 340.899353,1.011957 508.691681,0.916403 
	C512.135925,0.914442 513.111877,1.421040 513.109009,5.189763 
	C512.982971,172.982056 512.983154,340.774445 513.104004,508.566772 
	C513.106812,512.466248 512.064087,513.092407 508.435242,513.087708 
	C420.790283,512.975281 333.145111,513.000000 245.000000,513.000000 
z"/>
<path fill="#FCFAFB" opacity="1.000000" stroke="none" 
	d="
M377.081909,248.000000 
	C377.081909,213.171570 377.079224,178.843124 377.084381,144.514694 
	C377.085327,138.250946 377.176208,138.169922 383.527344,138.161026 
	C398.397369,138.140198 413.268066,138.198395 428.136871,138.054916 
	C431.643890,138.021088 433.101654,138.877869 433.093689,142.789841 
	C432.975189,200.947968 433.160370,259.107147 432.872711,317.264099 
	C432.821045,327.712524 427.406403,336.686829 421.144165,344.804596 
	C404.552368,366.312683 381.738556,374.815948 355.407623,375.610840 
	C339.293152,376.097321 323.560547,374.448090 308.885834,366.973633 
	C287.665924,356.165436 275.954254,338.801331 273.089386,315.326843 
	C272.627228,311.539886 272.651672,307.695465 272.379364,303.882751 
	C272.193237,301.276611 273.352753,300.375061 275.906036,300.384613 
	C293.070007,300.448853 310.234436,300.450989 327.398407,300.387329 
	C330.015991,300.377625 330.953339,301.561768 331.037140,303.977203 
	C331.088806,305.466736 331.317688,306.960083 331.583191,308.430786 
	C334.792694,326.209686 352.631470,334.221619 367.577850,324.385773 
	C375.146332,319.405121 376.916565,311.330933 377.011230,302.990875 
	C377.217407,284.829315 377.079285,266.663849 377.081909,248.000000 
z"/>
<path fill="#FBF9FA" opacity="1.000000" stroke="none" 
	d="
M137.960785,197.432175 
	C156.722885,202.092041 175.069183,206.718170 193.431580,211.279480 
	C209.528091,215.277924 225.633636,219.241226 241.759018,223.121017 
	C244.179184,223.703308 244.963898,224.945755 244.953278,227.317261 
	C244.889832,241.481995 244.823227,255.648315 244.989899,269.811371 
	C245.032333,273.416351 242.574142,273.868988 240.253632,274.459259 
	C229.331970,277.237366 218.373734,279.871674 207.429153,282.559723 
	C186.779510,287.631409 166.125626,292.685913 145.482178,297.782745 
	C125.344093,302.754791 105.207893,307.735229 85.094635,312.806244 
	C82.151718,313.548218 80.860420,313.193085 80.904083,309.731506 
	C81.057526,297.568176 81.026268,285.401276 80.927032,273.236908 
	C80.904182,270.435303 81.759575,269.261108 84.688049,268.639130 
	C108.707787,263.537537 132.680374,258.214142 156.671188,252.975998 
	C160.886276,252.055679 165.115707,251.199280 169.347000,250.355957 
	C170.582672,250.109665 171.889084,249.467422 171.893204,248.367355 
	C171.898911,246.839203 170.219696,247.164612 169.144287,246.931168 
	C140.927307,240.806183 112.717003,234.649994 84.482216,228.608215 
	C81.832222,228.041153 80.913559,226.830795 80.930542,224.217880 
	C81.009613,212.053162 81.021034,199.887207 80.930229,187.722641 
	C80.904457,184.270248 81.973213,183.533447 85.411018,184.417770 
	C102.754341,188.879059 120.164963,193.078766 137.960785,197.432175 
z"/>
<path fill="#FBF8F9" opacity="1.000000" stroke="none" 
	d="
M232.973389,364.925659 
	C183.823456,364.925629 135.167984,364.869537 86.513199,365.022400 
	C82.199051,365.035919 80.735611,364.055054 80.853432,359.537689 
	C81.166130,347.548676 81.146423,335.541656 80.860443,323.551270 
	C80.757202,319.222839 82.300484,318.315552 86.305008,318.324677 
	C137.292801,318.440918 188.281219,318.472809 239.268616,318.286469 
	C244.170792,318.268524 245.106216,319.984253 245.010529,324.358612 
	C244.759171,335.850433 244.693054,347.358337 245.036758,358.845367 
	C245.180069,363.635132 243.859940,365.661163 238.960922,364.966675 
	C237.164139,364.711945 235.300934,364.925629 232.973389,364.925659 
z"/>
</svg>